# xmcd CD database file
#
# Track frame offsets:
#	150
#	19379
#	37598
#	57359
#
# Disc length: 972 seconds
#
# Revision: 1
# Processed by: cddbd v1.5.2PL0 Copyright (c) Steve Scherf et al.
# Submitted via: CDex 1.77
#
DISCID=2803ca04
DTITLE=David Sanborn - Bang Bang [CD Single)
DYEAR=1900
DGENRE=Jazz
TTITLE0=Bang Bang (Mardi Gras Edit)
TTITLE1=Bang Bang (Album Edit)
TTITLE2=Bang Bang (Mardi Gras Dance Mix)
TTITLE3=Bang Bang (4x4 Mix)
EXTD=
EXTT0=
EXTT1=
EXTT2=
EXTT3=
PLAYORDER=
